<svg version="1.1" id="Layer_1" xmlns="http://www.w3.org/2000/svg" xmlns:xlink="http://www.w3.org/1999/xlink" x="0px" y="0px"
	 width="100%" viewBox="0 0 784 416" enable-background="new 0 0 784 416" xml:space="preserve">
<path fill="#000000" opacity="1.000000" stroke="none" 
	d="
M276.578369,391.461304 
	C283.194794,393.375549 286.945862,399.190125 292.761841,401.097900 
	C293.338776,403.678131 291.742981,404.575806 290.487457,405.575500 
	C285.075073,409.884918 278.811096,411.202423 272.130066,410.134888 
	C265.592773,409.090363 262.964142,404.243225 264.775085,398.033447 
	C265.347290,396.071350 264.295868,393.648987 266.805420,392.085602 
	C251.680817,393.624908 237.179672,397.734711 222.098618,396.621796 
	C229.560303,398.801483 237.281830,396.371399 244.735977,398.216705 
	C234.095444,401.992279 223.171478,400.256073 211.667648,400.231049 
	C223.684311,404.326447 235.726334,404.198364 247.524994,406.265778 
	C231.473999,412.418152 165.204910,398.615631 122.358269,363.137329 
	C121.118446,364.070160 122.424873,365.215027 122.128265,366.210541 
	C119.618042,374.635864 115.700485,379.257385 106.121986,373.840393 
	C99.477188,370.082550 96.026184,362.917084 97.206772,354.904083 
	C102.613457,355.468079 108.064804,356.036713 114.991531,356.759277 
	C108.440781,349.943787 102.898338,344.283661 97.472450,338.513977 
	C72.288254,311.734009 56.159416,280.229797 52.061905,243.721344 
	C44.583405,177.088501 65.660461,121.342033 118.818329,79.064186 
	C144.472839,58.660492 174.057266,47.057419 206.386642,42.960037 
	C229.638535,40.013126 252.911392,41.078964 275.778473,46.829815 
	C279.465363,47.757038 282.971558,49.410999 286.549042,50.761398 
	C288.241821,51.400375 289.579437,52.433388 288.997711,54.481186 
	C288.452667,56.399860 286.803223,57.048386 285.049622,56.725414 
	C281.294128,56.033733 277.536926,55.264729 273.862549,54.234467 
	C258.937134,50.049484 243.899796,50.864590 228.817001,53.013992 
	C227.377304,53.219162 225.922913,53.739861 224.551865,52.563595 
	C225.656738,50.790848 227.863724,51.155941 229.582855,49.760746 
	C228.189835,48.201691 226.388245,48.411190 224.719131,48.357018 
	C190.044861,47.231781 160.212173,59.330345 134.089386,81.557167 
	C124.781334,89.477005 116.707756,98.540802 109.305504,108.230904 
	C108.538544,109.234901 107.934715,110.507027 105.678841,110.461212 
	C108.514854,98.702934 119.346680,93.199585 125.731483,83.745110 
	C101.999771,92.953690 60.637161,158.618271 62.941605,183.000916 
	C67.182800,180.428970 71.402534,178.232849 76.500748,178.616440 
	C80.134254,178.889832 80.875954,180.429916 79.334389,183.484329 
	C78.135330,185.860123 76.952003,188.246536 75.662781,190.573441 
	C73.888161,193.776367 71.076233,195.275085 67.441101,195.300659 
	C63.883610,195.325668 62.038723,193.192673 60.961834,189.963867 
	C54.670952,212.653061 57.323624,249.389511 63.621353,263.733887 
	C67.356247,261.794281 69.341301,259.562897 68.965218,254.659714 
	C68.163826,244.211426 68.421135,233.691437 69.720207,223.246002 
	C69.940430,221.475220 69.967064,219.533997 73.069267,218.771805 
	C72.402901,230.332047 71.531982,241.627670 72.605583,253.559372 
	C78.927216,251.949646 84.862999,253.080414 90.788467,252.865921 
	C97.452377,252.624710 101.750015,248.993668 104.042244,241.935577 
	C107.560593,231.102066 106.692436,220.633850 103.237335,209.704834 
	C101.167717,203.158325 98.055283,198.632568 92.521339,195.211990 
	C90.637260,194.047409 89.633842,192.440369 91.170586,190.202774 
	C94.069519,185.981750 95.308449,181.127304 96.176666,176.197510 
	C97.089996,171.011551 99.568062,167.926666 105.365181,168.686859 
	C103.363594,165.151581 100.194305,162.845978 98.093948,159.761520 
	C94.961502,155.161438 97.313965,149.629791 103.217697,148.450958 
	C107.473343,147.601212 108.998581,145.229797 110.657661,141.646347 
	C129.248764,101.491409 158.846848,73.129143 200.871841,58.287357 
	C202.364716,57.760132 203.856445,56.861568 205.903519,57.520306 
	C204.286377,59.670971 201.970581,60.161274 199.901001,60.988918 
	C159.876389,76.995171 130.179108,103.848434 112.785255,143.705261 
	C111.696655,146.199722 111.101685,148.224182 113.236328,150.486404 
	C114.852699,152.199371 114.417824,154.587173 114.284584,156.724884 
	C114.156036,158.787491 114.761200,160.622498 115.820641,162.296783 
	C114.177017,163.975464 110.834450,163.247772 110.952080,166.213760 
	C111.056290,168.841385 113.367119,169.682022 115.430527,170.291641 
	C118.904732,171.318100 120.363190,173.811096 121.398666,177.028137 
	C122.350784,179.986221 122.072128,183.321426 124.468834,186.642960 
	C127.785385,182.314911 133.154343,184.061676 137.584045,181.636581 
	C137.433762,183.871552 137.296219,185.916931 137.170471,187.787033 
	C134.557693,189.429321 132.899612,187.375687 130.783798,186.625717 
	C127.519119,189.018631 126.928902,194.097610 121.964691,195.506989 
	C118.975449,191.771942 118.270309,186.904633 116.197166,182.299805 
	C114.965897,187.205307 115.806305,191.614578 117.795387,195.766724 
	C122.410759,205.401154 121.598915,215.506668 120.839622,225.671738 
	C120.261971,233.404938 117.700600,241.031021 119.179031,248.869537 
	C121.205978,259.616119 129.109390,265.096405 140.179947,264.183929 
	C146.272446,263.681854 151.728851,261.071533 157.574615,259.803833 
	C172.486725,256.569977 187.333832,257.739410 202.205078,260.114075 
	C217.285385,262.522156 232.174133,266.493988 247.654373,265.733490 
	C252.418915,265.499451 256.887817,264.313416 260.869873,261.721252 
	C265.383667,258.782990 267.817169,252.570572 266.344177,248.233475 
	C265.570984,245.956924 264.106567,244.391785 261.498871,244.989670 
	C258.798218,245.608856 257.627747,247.280121 258.512299,249.867096 
	C260.828735,251.333405 261.443665,248.275650 263.581543,248.754318 
	C264.725952,251.114532 264.167023,253.188019 261.525482,254.023300 
	C258.405701,255.009827 255.897552,253.780685 254.869904,250.504562 
	C253.762344,246.973770 256.207397,242.690430 259.670563,241.818680 
	C264.336182,240.644211 268.160492,242.512146 269.315918,246.529755 
	C272.359314,257.112000 266.039764,266.013336 254.041718,268.373322 
	C242.986969,270.547760 232.170288,268.669128 221.332413,266.852020 
	C205.435501,264.186768 189.667618,260.515350 173.360443,261.272095 
	C165.170837,261.652100 156.974457,262.369965 149.356216,265.372223 
	C139.408829,269.292389 129.765503,268.763428 120.223396,264.730896 
	C113.122108,261.729889 106.587967,261.446960 99.828995,265.803497 
	C94.358215,269.329712 88.455772,268.352905 82.552795,266.160950 
	C73.724121,262.882629 72.908638,263.515778 74.463249,272.540894 
	C75.673668,279.567932 77.845802,286.378021 80.645180,294.491302 
	C80.717606,290.085480 78.379311,287.131439 80.667900,283.288574 
	C89.238991,307.120117 99.072601,329.538788 118.453117,347.250671 
	C108.610878,328.542542 95.190193,312.309998 93.011055,290.861053 
	C95.724503,291.050110 96.017105,292.921021 96.392769,294.410492 
	C100.743591,311.661407 110.289825,326.159180 119.410660,341.174377 
	C128.787659,356.611267 141.584686,366.261414 157.610352,373.222107 
	C180.475769,383.153625 204.114090,389.151581 229.090744,389.682312 
	C232.966324,389.764618 236.662872,388.922668 240.264694,388.316284 
	C241.350189,387.229492 240.601974,386.318024 240.312485,385.423462 
	C239.213226,382.026672 237.995667,378.723785 241.958847,376.115875 
	C245.538071,373.760620 253.178116,372.660767 255.797653,374.427734 
	C258.059326,375.953278 257.647675,377.680511 256.129059,379.475861 
	C254.520432,381.377686 252.896133,383.272766 252.036209,386.458496 
	C258.212860,387.230438 263.844574,384.889374 269.618500,384.384155 
	C271.355804,384.232117 273.291260,382.653687 274.687347,384.525940 
	C276.231781,386.597198 273.944855,388.119202 273.230682,389.845276 
	C273.887726,391.111633 275.285126,390.798309 276.578369,391.461304 
M97.706230,255.644638 
	C92.778229,258.261902 87.785316,257.635406 82.723923,256.049286 
	C79.023148,254.889542 75.454926,254.698303 72.342110,258.122864 
	C89.019859,265.554840 100.572853,263.645355 105.256248,248.440002 
	C103.283127,251.359406 101.288689,253.786194 97.706230,255.644638 
M69.973228,266.962402 
	C69.110100,265.076630 67.809166,265.209442 66.338829,266.184326 
	C64.871925,267.156952 64.680069,268.524445 65.088287,270.117493 
	C67.136795,278.111633 70.523315,285.502625 74.974716,292.450104 
	C73.025795,284.219238 71.470787,275.967896 69.973228,266.962402 
M104.656235,195.545120 
	C106.399803,190.418274 107.020920,185.463303 102.559357,180.490829 
	C100.539536,183.764160 98.919441,186.428833 97.257790,189.067337 
	C96.314240,190.565582 96.335632,192.135025 97.798637,193.005356 
	C99.862236,194.232956 100.594444,198.409775 104.656235,195.545120 
z"/>
<path fill="#000000" opacity="1.000000" stroke="none" 
	d="
M686.203003,177.648773 
	C693.767151,178.137344 700.963074,176.550385 707.974609,178.926331 
	C710.159241,179.666641 711.331970,180.637283 711.394592,183.080887 
	C711.457581,185.539551 710.086121,185.960129 708.126160,186.576660 
	C701.930359,188.525757 701.967041,188.642273 704.065674,196.964340 
	C700.264648,197.174957 699.465149,196.180359 698.162537,189.620667 
	C693.990295,194.990845 694.101318,200.134018 698.562622,205.359009 
	C700.352295,207.455048 701.281311,209.951477 701.890625,212.543625 
	C704.475098,223.538406 707.062256,234.534119 709.466309,245.569153 
	C711.077515,252.964890 706.971497,258.421844 699.592590,258.287292 
	C689.633179,258.105743 679.623779,259.429443 669.713379,257.493530 
	C668.073792,257.173279 666.830811,258.057465 665.525879,258.775787 
	C645.236389,269.944122 624.291992,270.383209 602.883179,262.508240 
	C600.120605,261.492035 597.523865,261.146027 594.632629,262.014160 
	C566.441467,270.479340 537.952087,269.377869 509.115021,265.687988 
	C472.917053,261.056183 438.934479,249.385468 405.458954,235.683533 
	C384.951599,227.289642 364.232056,219.515198 342.086182,216.744034 
	C315.979919,213.477295 290.510986,215.657394 266.838776,228.151215 
	C257.998169,232.817139 250.210846,239.123520 245.185196,248.186874 
	C243.383286,251.436462 240.191177,250.598770 237.460175,246.224976 
	C236.167847,245.789490 235.233994,246.632172 234.243988,247.175812 
	C217.261414,256.501038 198.579880,243.596481 196.774902,225.367462 
	C195.217590,209.639999 203.140060,197.230331 216.556808,194.308670 
	C225.772629,192.301804 234.528168,193.662766 241.116714,201.441025 
	C245.007584,206.034485 244.601624,207.378433 238.552094,210.100967 
	C234.985764,206.647110 231.915497,202.288940 226.373581,201.375092 
	C218.954758,200.151749 212.755905,202.058914 208.484207,208.460510 
	C203.114243,216.507996 202.495010,224.976334 207.479187,233.399918 
	C214.035355,244.480240 227.153030,245.938034 236.349777,236.946167 
	C238.548233,234.796661 239.141098,232.368820 238.402359,229.686890 
	C237.627609,226.874237 234.917511,227.742508 232.900085,227.442047 
	C231.918839,227.295898 230.904770,227.354904 229.905411,227.348892 
	C227.949493,227.337112 226.767563,226.583466 226.733521,224.419464 
	C226.702209,222.428513 227.488068,221.107330 229.527786,221.051926 
	C233.853622,220.934433 238.184143,220.939774 242.512177,220.971313 
	C245.059143,220.989868 245.221939,222.822739 245.347992,224.790756 
	C245.578186,228.384872 244.676254,232.082275 246.039505,235.467438 
	C247.649017,236.233765 248.562134,235.181213 249.299774,234.460571 
	C261.501404,222.540192 276.959045,217.713608 293.017303,213.954910 
	C312.816223,209.320633 332.732239,210.175507 352.475311,213.249146 
	C376.979614,217.064026 399.613007,227.011597 422.313171,236.579239 
	C448.608246,247.662079 475.801025,255.928741 503.996124,260.435730 
	C523.571411,263.564880 543.375732,264.485382 563.182556,263.544373 
	C572.307129,263.110870 581.285095,261.092255 590.093018,258.546356 
	C591.389160,258.171692 592.597412,257.653656 593.403076,256.147614 
	C592.882263,255.227142 592.371521,254.205307 591.754211,253.252548 
	C586.572266,245.254242 586.392273,237.028534 592.021423,229.458939 
	C597.704834,221.816345 605.410828,217.713257 615.420715,219.553085 
	C620.421570,220.472260 625.017639,222.362274 629.242432,225.083481 
	C633.561707,227.865509 634.371521,231.260239 631.985168,235.794174 
	C627.985413,243.393631 621.771606,248.817978 614.639221,253.359726 
	C612.590698,254.664169 610.025208,255.321793 608.543640,257.858337 
	C611.833069,261.726715 616.641235,261.588440 620.852905,262.159698 
	C633.939087,263.934753 646.734009,262.854645 658.853333,256.916504 
	C662.824036,254.970963 664.273682,252.395798 664.911743,247.772049 
	C666.703491,234.788895 669.903931,222.015244 673.640137,209.436768 
	C674.995361,204.874420 679.970642,201.753128 678.801514,195.956039 
	C678.290527,193.422043 678.204651,191.367615 674.994873,191.325699 
	C672.582886,191.294205 671.925232,189.573502 671.943359,187.579193 
	C671.965088,185.193024 670.872009,181.937210 673.870239,180.980331 
	C677.761780,179.738312 681.300354,176.996277 686.203003,177.648773 
M594.373352,240.609100 
	C594.492981,245.549118 596.480652,249.559158 600.248962,252.761490 
	C601.529541,253.849716 602.701416,254.252167 604.297485,253.466660 
	C612.613831,249.373825 620.061707,244.220001 625.405151,236.450867 
	C627.460815,233.462006 626.843750,230.827545 624.283447,228.478897 
	C616.872498,221.680496 604.242065,222.729858 598.170044,230.674591 
	C596.106995,233.373932 595.096924,236.533646 594.373352,240.609100 
M679.337952,182.693771 
	C677.985657,183.491516 675.698669,183.296570 675.636292,185.494171 
	C675.566101,187.967697 677.748840,187.581924 679.296753,187.845215 
	C680.725830,188.088318 681.466125,189.145035 682.460999,190.039490 
	C685.416016,192.696136 689.971008,192.961563 691.971375,190.667236 
	C694.869141,187.343460 697.290833,184.302979 701.919312,183.844604 
	C702.117920,183.824936 702.235657,182.988586 702.790161,181.361923 
	C694.903625,181.418442 687.499390,179.878372 679.337952,182.693771 
M682.777466,196.524429 
	C682.858398,200.260376 682.858398,200.260376 691.858704,197.946274 
	C689.548096,193.792801 686.191467,195.757431 682.777466,196.524429 
z"/>
<path fill="#000000" opacity="1.000000" stroke="none" 
	d="
M191.775055,236.364594 
	C193.015121,239.325058 194.225876,241.894196 195.126068,244.567871 
	C195.691437,246.247162 197.655029,248.529465 194.738922,249.653641 
	C192.177689,250.641006 189.376205,250.541794 187.975632,247.364990 
	C186.566711,244.169266 185.008652,241.013458 183.929581,237.705231 
	C182.802063,234.248474 180.672058,232.907349 177.195953,233.303482 
	C176.539215,233.378326 175.850662,233.399384 175.202545,233.291092 
	C164.357376,231.479218 156.545670,234.135040 154.206146,246.371155 
	C153.317215,251.020386 149.417236,250.496628 145.429779,249.270493 
	C146.425247,242.814377 149.745850,237.359833 152.009460,231.586914 
	C156.379196,220.442780 161.262283,209.499451 165.964798,198.486618 
	C166.925110,196.237686 167.550888,193.776199 170.881409,193.653870 
	C174.611191,193.516891 175.076096,196.365448 176.065750,198.720383 
	C181.284225,211.137787 186.438110,223.582336 191.775055,236.364594 
M168.891998,209.752457 
	C166.816788,215.084717 164.182663,220.218475 162.637970,226.452194 
	C168.274155,226.602081 173.395676,227.180801 178.705795,225.959213 
	C177.558441,219.487839 174.656662,214.223480 172.397568,208.747726 
	C171.307388,206.105225 170.022995,207.179932 168.891998,209.752457 
z"/>
<path fill="#000000" opacity="1.000000" stroke="none" 
	d="
M224.995667,67.410217 
	C223.684265,61.885208 226.517929,60.435719 231.027649,60.613209 
	C230.474380,59.094742 228.354904,59.459557 228.305099,57.761600 
	C233.190918,52.366043 238.474487,51.424919 244.559464,55.078125 
	C253.718857,60.577114 257.746307,69.290070 259.253693,79.398613 
	C259.775665,82.899300 258.606812,85.273560 254.507538,83.266853 
	C250.185654,81.151161 245.463715,81.155792 240.897888,80.411942 
	C233.195908,79.157150 227.531540,75.573524 224.995667,67.410217 
z"/>
<path fill="#000000" opacity="1.000000" stroke="none" 
	d="
M726.486328,181.257812 
	C726.659851,187.353210 726.670776,193.019135 727.105530,198.652344 
	C727.500305,203.768188 731.839600,207.785706 736.179688,207.558212 
	C740.520447,207.330704 744.410767,202.968124 744.750671,198.011826 
	C744.900818,195.822983 744.119385,193.327927 746.456726,191.640396 
	C749.193298,195.085083 749.091370,200.695908 746.372314,204.983093 
	C743.552124,209.429810 738.405579,211.613480 733.493958,210.447281 
	C727.857300,209.108917 723.904541,205.182846 723.765259,199.870361 
	C723.508179,190.063492 723.478943,180.242279 723.695068,170.434540 
	C723.822571,164.648438 727.827454,160.421249 733.014587,159.725922 
	C740.378479,158.738785 745.708374,161.194107 747.322327,167.431564 
	C748.539673,172.136322 750.858154,173.610062 755.337158,173.119308 
	C756.943420,172.943314 758.661926,173.303940 760.263672,173.690735 
	C762.541077,174.240692 763.441467,175.928162 763.318054,178.201172 
	C763.191833,180.524124 761.959595,182.183990 759.675171,182.197815 
	C752.035645,182.244049 744.394775,183.526779 736.756531,182.292496 
	C734.296631,181.894989 732.871216,180.334534 732.794495,177.885101 
	C732.723633,175.624130 734.047485,174.140106 736.221924,173.568497 
	C737.337708,173.275208 738.512390,173.188477 739.666382,173.062759 
	C741.411438,172.872650 743.690125,173.587280 744.384338,171.296127 
	C745.012451,169.223145 743.815918,167.333328 742.360657,165.934113 
	C739.880188,163.549271 737.106689,161.929443 733.377625,163.230240 
	C729.675171,164.521713 727.525024,166.926788 727.202332,170.849930 
	C726.929443,174.167892 726.736572,177.492432 726.486328,181.257812 
z"/>
<path fill="#000000" opacity="1.000000" stroke="none" 
	d="
M41.189575,133.771713 
	C40.261223,131.789062 39.495937,130.161453 38.754742,128.585052 
	C47.815739,122.992088 64.357964,131.243805 65.128990,141.351852 
	C65.528152,146.584930 59.624535,151.723785 54.295876,150.732895 
	C49.075584,149.762146 45.718727,146.516388 43.822128,141.719284 
	C42.845512,139.249115 42.166264,136.661362 41.189575,133.771713 
z"/>
<path fill="#000000" opacity="1.000000" stroke="none" 
	d="
M514.254150,316.137451 
	C512.871094,315.426147 511.832214,314.897125 510.881989,314.239838 
	C510.154663,313.736786 509.759186,312.952911 510.234375,312.085999 
	C510.846039,310.970123 511.808655,311.030640 512.777222,311.585175 
	C515.288574,313.023102 517.930420,313.955841 520.863464,313.476562 
	C522.627380,313.188324 524.076965,312.260559 524.284302,310.356750 
	C524.479675,308.562256 523.131287,307.710297 521.635864,307.206604 
	C519.432739,306.464539 517.178833,305.868774 514.992065,305.083710 
	C512.320435,304.124573 510.313202,302.535278 510.303223,299.351532 
	C510.293274,296.190735 511.756012,293.985992 514.599792,292.654785 
	C519.329407,290.440765 524.885254,292.069702 526.527893,296.221100 
	C524.441833,297.809418 522.849426,295.552399 520.990662,295.491547 
	C518.477783,295.409271 515.485107,294.998077 514.663696,298.022339 
	C513.725220,301.477631 516.908691,302.032257 519.248840,302.590790 
	C522.506897,303.368408 525.715332,304.102600 528.345154,306.838776 
	C529.496277,304.951416 530.354858,303.181183 531.543823,301.671082 
	C533.880005,298.703857 536.975952,297.340912 540.784424,298.153168 
	C544.352844,298.914246 546.598694,301.040619 547.584045,304.641876 
	C548.429810,307.732849 547.312744,308.960663 544.257507,309.132874 
	C541.172058,309.306824 537.993225,308.599182 534.668701,309.857727 
	C535.115234,312.890472 536.883301,313.667664 539.495300,313.834290 
	C541.927490,313.989502 543.152161,310.740356 546.108704,311.886536 
	C545.993896,315.524933 543.186035,316.292084 540.582825,316.943878 
	C536.544617,317.954926 533.412109,316.036316 529.327820,310.471680 
	C525.736938,317.010376 522.754578,318.186310 514.254150,316.137451 
M538.708374,301.350189 
	C536.914490,301.713654 535.087280,302.034302 534.696228,304.878082 
	C537.600769,305.905151 540.388672,306.337402 543.428772,304.728424 
	C542.741699,302.502563 541.545532,301.370819 538.708374,301.350189 
z"/>
<path fill="#000000" opacity="1.000000" stroke="none" 
	d="
M275.779449,32.763069 
	C273.290375,34.983990 271.054260,36.956104 268.843719,38.956512 
	C265.679718,41.819756 261.886078,42.846069 257.787933,42.267334 
	C254.928940,41.863594 253.017670,40.606819 252.182419,37.090317 
	C250.751495,31.065912 252.105118,26.970861 257.779083,24.409946 
	C264.299866,21.466833 273.169708,23.254665 278.832275,28.692816 
	C278.823334,30.622969 277.196777,31.405882 275.779449,32.763069 
z"/>
<path fill="#000000" opacity="1.000000" stroke="none" 
	d="
M342.286957,291.801880 
	C349.387909,292.270111 351.540070,295.847961 347.946747,301.101288 
	C346.020111,303.918030 346.421570,305.517975 349.135712,306.961121 
	C351.274445,307.068481 350.976837,304.144165 353.589203,304.110016 
	C355.560883,307.621002 351.517822,312.903442 356.651550,316.177216 
	C351.666199,315.202637 347.498047,316.961639 343.257782,317.066803 
	C336.653473,317.230591 333.517914,311.292847 336.982086,305.677948 
	C338.098755,303.867950 338.932617,302.452393 337.894714,300.261749 
	C335.871918,295.992310 337.712952,293.309753 342.286957,291.801880 
M340.050751,307.718719 
	C338.657501,310.090607 339.493408,311.956268 341.662872,313.101532 
	C343.665588,314.158752 345.743683,314.170868 347.480225,311.773407 
	C345.317108,309.745605 344.882538,305.642487 340.050751,307.718719 
M341.008331,298.117371 
	C341.629425,299.977173 342.646423,301.051239 344.555908,299.574554 
	C345.683624,298.702484 346.338165,297.277679 345.137817,296.225952 
	C343.340942,294.651489 341.899200,295.594299 341.008331,298.117371 
z"/>
<path fill="#000000" opacity="1.000000" stroke="none" 
	d="
M204.296143,316.578796 
	C197.046463,311.911133 196.523926,302.357635 202.912460,298.830139 
	C207.109619,296.512634 211.259689,299.849731 215.466888,298.693848 
	C216.298492,298.465393 216.649109,300.074615 216.626938,301.114594 
	C216.517456,306.252380 216.618423,311.405945 216.236420,316.523438 
	C215.865784,321.488464 212.448883,323.753723 207.842499,324.115265 
	C204.112381,324.408051 200.645370,323.722412 199.220596,318.978302 
	C203.382492,318.356323 207.007095,322.693329 210.800323,319.539459 
	C211.796951,318.710846 212.843826,317.761688 212.053146,315.888184 
	C209.628113,316.177521 207.269241,318.437744 204.296143,316.578796 
M206.774597,313.544647 
	C210.454071,313.675751 212.305435,311.703033 212.562363,308.224457 
	C212.789902,305.143372 211.727615,302.598969 208.485092,301.698578 
	C205.813385,300.956696 203.903107,302.385956 202.898315,304.675507 
	C201.477295,307.913452 202.092865,310.818817 205.187378,312.912842 
	C205.458252,313.096161 205.775085,313.211548 206.774597,313.544647 
z"/>
<path fill="#000000" opacity="1.000000" stroke="none" 
	d="
M320.430145,299.085449 
	C323.171143,298.018005 324.233368,299.050385 324.259766,301.433105 
	C324.315033,306.416107 324.579803,311.415680 324.272736,316.378357 
	C323.978607,321.131470 320.593414,324.009857 315.532654,324.195374 
	C311.796692,324.332275 308.444641,323.491547 306.960815,318.854340 
	C311.108551,318.402649 314.383820,322.635071 318.186951,319.901276 
	C319.449524,318.993683 320.291260,317.882538 320.241943,316.182770 
	C310.386719,318.278107 304.276428,312.992493 306.534363,304.516876 
	C308.099854,298.640594 312.147186,297.051514 320.430145,299.085449 
M320.522858,309.022949 
	C320.304047,304.081055 317.995270,301.007874 314.639435,301.628448 
	C311.081360,302.286438 309.919739,305.013306 310.142670,308.315460 
	C310.312927,310.837524 311.702240,312.806610 314.177765,313.423706 
	C317.255615,314.190979 319.197296,312.503204 320.522858,309.022949 
z"/>
<path fill="#000000" opacity="1.000000" stroke="none" 
	d="
M494.754395,323.028809 
	C487.010742,325.312836 483.498688,324.127563 482.088837,319.061615 
	C492.478424,320.163422 492.478424,320.163422 494.388641,316.654938 
	C490.267792,317.767029 486.642151,317.530853 483.696869,314.570282 
	C481.730499,312.593689 480.695953,310.208557 480.672668,307.429321 
	C480.637451,303.228668 482.263824,300.136810 486.360138,298.427795 
	C490.199463,296.825989 493.751770,300.151428 498.024689,298.166351 
	C498.024689,305.499603 498.131226,312.211609 497.947723,318.915680 
	C497.903351,320.537292 496.588348,321.902283 494.754395,323.028809 
M494.577637,305.225769 
	C493.600189,302.607788 491.823242,300.972107 488.939606,301.609741 
	C486.283173,302.197052 484.635559,304.159180 484.438934,306.873291 
	C484.180939,310.434113 485.699890,313.045013 489.471222,313.577209 
	C493.080536,314.086609 494.655212,311.692383 494.577637,305.225769 
z"/>
<path fill="#000000" opacity="1.000000" stroke="none" 
	d="
M133.250717,321.585449 
	C137.760666,325.255402 139.761856,334.686829 137.388763,339.301849 
	C136.025772,341.952484 133.973709,343.438110 130.939133,342.765747 
	C127.589813,342.023590 125.028275,340.124481 124.788528,336.470551 
	C124.356712,329.889160 127.368294,325.022491 133.250717,321.585449 
z"/>
<path fill="#000000" opacity="1.000000" stroke="none" 
	d="
M167.061981,314.013306 
	C165.360382,312.333771 164.251572,310.753937 163.561417,308.814423 
	C161.075027,301.826965 164.406601,294.558685 171.214310,292.326447 
	C177.685898,290.204376 183.657974,294.176880 185.765839,302.005798 
	C187.443008,308.235138 183.070862,315.126434 176.557938,316.701019 
	C172.994278,317.562622 170.065826,316.401154 167.061981,314.013306 
M182.282074,305.876190 
	C182.887604,300.945587 180.768524,297.374878 176.271439,295.722992 
	C172.702621,294.412079 169.865997,296.278564 167.938782,299.400177 
	C165.044388,304.088379 166.563461,310.243927 171.181198,312.696625 
	C175.430450,314.953644 178.990112,312.941223 182.282074,305.876190 
z"/>
<path fill="#000000" opacity="1.000000" stroke="none" 
	d="
M568.968018,316.470062 
	C564.699097,313.849792 564.687317,309.070282 562.537231,305.470642 
	C561.601013,303.903198 561.604370,301.269135 558.667297,301.837036 
	C555.865051,302.378906 554.267029,304.028534 554.147705,306.944489 
	C554.059387,309.100952 554.070557,311.262787 553.932556,313.415497 
	C553.848877,314.721130 553.799866,316.333679 551.890747,316.172455 
	C550.423828,316.048584 550.223022,314.692261 550.213257,313.512970 
	C550.173584,308.739655 550.196777,303.965820 550.196777,298.716492 
	C554.792053,299.476959 558.978027,296.828979 562.678589,298.828552 
	C566.409607,300.844574 565.473083,306.418182 568.766174,309.202820 
	C573.064270,306.858704 571.106445,299.832916 577.151672,298.939270 
	C575.111267,305.080597 574.052490,311.562347 568.968018,316.470062 
z"/>
<path fill="#000000" opacity="1.000000" stroke="none" 
	d="
M412.164246,315.400269 
	C406.566101,318.124054 401.751282,317.318695 398.894318,313.476227 
	C396.681152,310.499695 396.901642,304.330688 399.331329,301.249390 
	C401.969421,297.903809 407.009735,296.987061 411.112396,299.110291 
	C412.955231,300.064026 414.301422,301.508453 415.113831,303.400970 
	C416.712219,307.124359 415.500671,308.992981 411.421326,309.197815 
	C408.511841,309.343903 405.517700,308.821747 402.370514,310.006073 
	C405.395325,317.383057 409.942749,311.034790 413.330200,311.546448 
	C414.598785,313.366058 413.235687,314.171387 412.164246,315.400269 
M409.806152,302.621002 
	C406.583160,300.296722 404.170959,301.271454 401.525635,305.068085 
	C405.052094,304.726898 408.389801,308.608856 409.806152,302.621002 
z"/>
<path fill="#000000" opacity="1.000000" stroke="none" 
	d="
M369.844055,314.163818 
	C362.813385,305.248779 365.114746,295.215820 374.535614,291.951813 
	C378.523682,290.570038 381.697449,292.191956 384.706818,294.409088 
	C385.769806,295.192230 386.707062,296.537140 385.803284,297.885498 
	C384.707031,299.520996 383.602234,298.301208 382.462311,297.571564 
	C377.509857,294.401855 374.094849,294.847931 371.282196,298.920624 
	C368.358948,303.153381 368.950104,308.369507 372.819214,311.507324 
	C375.543671,313.716827 378.430145,314.304718 381.481354,311.980133 
	C382.843445,310.942413 384.039642,309.207581 386.189484,310.256378 
	C385.674866,317.496429 377.949188,319.430237 369.844055,314.163818 
z"/>
<path fill="#000000" opacity="1.000000" stroke="none" 
	d="
M288.451691,379.476532 
	C286.873077,381.789398 285.033722,383.066132 282.632111,383.619659 
	C279.436157,384.356232 277.063019,383.365143 275.586945,380.443481 
	C274.053833,377.408936 274.506317,374.667297 276.982391,372.282135 
	C281.096893,368.318665 288.083191,367.863983 293.795288,371.426758 
	C292.085541,374.011139 290.375641,376.595764 288.451691,379.476532 
z"/>
<path fill="#000000" opacity="1.000000" stroke="none" 
	d="
M603.993347,310.374939 
	C603.443054,302.944489 605.573547,299.376678 610.953003,298.136993 
	C615.124878,297.175598 619.369080,299.298523 621.226013,303.275421 
	C623.124512,307.341278 622.041687,309.014587 617.515015,309.277313 
	C614.620789,309.445312 611.609009,308.459564 608.465332,309.991913 
	C609.064575,312.949371 610.851807,313.694977 613.444458,313.764557 
	C615.837646,313.828857 617.158142,310.787628 620.106506,311.822449 
	C619.898987,315.610626 617.075928,316.748199 614.233887,317.057892 
	C609.435974,317.580627 605.920044,315.386780 603.993347,310.374939 
M608.237305,304.576477 
	C611.219360,306.798248 614.243103,305.835571 617.440369,305.014526 
	C614.900208,300.270233 612.535095,300.075562 608.237305,304.576477 
z"/>
<path fill="#000000" opacity="1.000000" stroke="none" 
	d="
M690.710876,310.213806 
	C694.381348,314.070160 697.978943,314.601410 701.833313,311.131195 
	C702.989258,310.090454 704.449219,308.997620 705.574707,310.808105 
	C706.573547,312.414886 705.072144,313.608368 703.891296,314.473206 
	C699.974548,317.341888 695.816528,318.215332 691.368835,315.618958 
	C686.717163,312.903534 684.115784,307.667633 684.903870,302.591797 
	C686.260376,293.855133 695.219055,289.064209 702.314575,293.371002 
	C703.939148,294.357056 706.400269,295.776489 705.017456,297.925751 
	C703.387512,300.458954 702.003296,297.680023 700.709717,296.757660 
	C697.896240,294.751526 694.977722,294.833221 692.378235,296.759644 
	C689.408325,298.960632 687.929749,302.152100 688.595459,305.912537 
	C688.844604,307.320404 689.823120,308.599152 690.710876,310.213806 
z"/>
<path fill="#000000" opacity="1.000000" stroke="none" 
	d="
M417.354675,308.232513 
	C419.544403,305.627472 422.188934,305.567169 424.899292,305.574341 
	C426.327850,305.578125 428.380646,305.838013 428.200470,303.662262 
	C428.035095,301.665161 426.240631,301.306976 424.386444,301.435944 
	C422.401215,301.574036 420.530060,303.771790 418.102081,301.626404 
	C419.627228,297.676453 423.104645,297.841003 426.214050,298.055511 
	C429.765503,298.300537 432.010101,300.574738 432.376190,304.164093 
	C432.773285,308.057648 432.315125,312.017151 433.616760,316.381500 
	C429.941071,315.824921 426.859436,316.452148 423.710388,317.033142 
	C418.646301,317.967468 415.830627,314.040619 417.354675,308.232513 
M421.797089,313.070801 
	C424.162079,314.249786 426.285614,314.110352 427.890686,311.803833 
	C428.485931,310.948486 428.705048,309.856995 427.798340,309.095673 
	C426.227905,307.777069 424.316193,307.989044 422.621490,308.648865 
	C420.853210,309.337341 420.051147,310.713898 421.797089,313.070801 
z"/>
<path fill="#000000" opacity="1.000000" stroke="none" 
	d="
M234.403687,311.366333 
	C234.399551,313.197693 235.624756,314.583282 234.441559,316.312073 
	C231.579041,315.816833 228.772491,316.547882 225.895462,317.014923 
	C222.232849,317.609467 219.206329,315.806763 218.641891,311.913788 
	C218.031189,307.701721 220.961655,306.127960 224.618958,305.569305 
	C226.372833,305.301392 228.266953,306.138794 230.170731,304.750488 
	C230.294907,301.925140 228.601730,301.342194 226.129364,301.530273 
	C224.258316,301.672638 222.400635,303.190277 220.190002,301.463318 
	C221.670258,297.831512 224.795120,297.734955 227.844650,298.043579 
	C231.327255,298.396057 233.694778,300.408447 234.160248,304.005035 
	C234.456177,306.291473 234.324631,308.633240 234.403687,311.366333 
M226.735840,308.413269 
	C225.046356,308.918304 222.733368,308.884216 222.816010,311.373962 
	C222.874054,313.122650 224.446609,313.735596 226.085266,313.759949 
	C228.117584,313.790192 229.747604,313.029053 230.177063,310.901764 
	C230.607391,308.770233 229.068466,308.443695 226.735840,308.413269 
z"/>
<path fill="#000000" opacity="1.000000" stroke="none" 
	d="
M450.351990,299.746033 
	C453.024506,304.614929 452.044098,309.489899 451.945831,314.274048 
	C451.924103,315.332794 451.444061,316.276398 450.226288,316.347290 
	C448.726532,316.434662 448.168549,315.364471 448.104156,314.113373 
	C447.967224,311.454773 447.997711,308.787872 447.881195,306.127777 
	C447.798950,304.249756 447.540619,302.217560 445.343689,301.751404 
	C443.097168,301.274689 441.588684,302.754272 440.491150,304.549286 
	C438.707855,307.465851 439.632690,310.725098 439.420807,313.838928 
	C439.340881,315.013916 439.446014,316.367920 437.843140,316.472595 
	C436.392059,316.567383 435.782593,315.508911 435.773834,314.202301 
	C435.739807,309.122589 435.759979,304.042572 435.759979,298.140259 
	C440.953033,300.999237 445.677155,295.260254 450.351990,299.746033 
z"/>
<path fill="#000000" opacity="1.000000" stroke="none" 
	d="
M287.807800,307.972168 
	C288.039642,304.737885 287.240204,301.874634 288.561371,298.859924 
	C291.313477,299.477325 293.914581,298.843506 296.596771,298.086395 
	C299.671661,297.218475 302.544800,298.581879 303.502167,301.551758 
	C304.838806,305.697968 304.253662,310.130188 303.885376,314.443848 
	C303.794189,315.511871 303.086945,316.323212 301.860016,316.138855 
	C300.672211,315.960419 300.263885,314.972015 300.210175,313.948486 
	C300.079407,311.456177 300.146149,308.951996 299.970398,306.464081 
	C299.819305,304.326019 299.827698,301.731903 296.887177,301.567749 
	C294.181854,301.416718 292.425262,303.461426 291.958618,305.770416 
	C291.282288,309.116791 291.331757,312.609833 291.000092,316.983856 
	C286.288361,314.879974 288.380676,311.128448 287.807800,307.972168 
z"/>
<path fill="#000000" opacity="1.000000" stroke="none" 
	d="
M237.715378,308.889038 
	C237.953873,305.321930 237.156387,302.135925 238.455261,298.809845 
	C241.203217,299.091644 243.870712,299.074219 246.553329,298.132294 
	C248.967529,297.284576 251.519821,298.255280 252.502609,300.576660 
	C254.676208,305.710815 254.234879,311.039978 253.502975,316.253632 
	C250.378540,316.425323 250.173782,314.843445 250.093399,313.334564 
	C249.978439,311.176819 250.091965,309.007294 249.990326,306.848328 
	C249.887680,304.668243 249.813004,302.116486 247.102615,301.696167 
	C244.083054,301.227936 242.470886,303.592133 241.849457,306.033142 
	C241.248199,308.394928 241.491974,310.973694 241.383041,313.457977 
	C241.339920,314.441681 241.526077,315.473480 240.439148,316.449554 
	C236.162781,315.456482 238.333054,311.805389 237.715378,308.889038 
z"/>
<path fill="#000000" opacity="1.000000" stroke="none" 
	d="
M471.332764,297.923584 
	C476.700256,297.753052 478.395935,300.924255 478.629547,305.166779 
	C478.783783,307.968597 478.431396,310.799347 478.285919,313.616119 
	C478.224609,314.803009 478.129852,316.120850 476.557770,316.150269 
	C475.016693,316.179138 474.753601,314.929962 474.726715,313.711609 
	C474.671661,311.222565 474.713837,308.731079 474.643463,306.242645 
	C474.585205,304.181091 474.333252,301.899658 471.737640,301.793365 
	C469.040222,301.682922 466.791290,302.981354 466.433014,305.965546 
	C466.137665,308.425598 466.292908,310.937469 466.194183,313.424255 
	C466.141205,314.758850 466.115265,316.301117 464.207794,316.220337 
	C462.620300,316.153107 462.594696,314.809845 462.590851,313.629944 
	C462.575317,308.840546 462.584381,304.051056 462.584381,298.910095 
	C465.617035,299.035828 468.377563,299.103729 471.332764,297.923584 
z"/>
<path fill="#000000" opacity="1.000000" stroke="none" 
	d="
M267.513336,317.006042 
	C262.676697,316.557648 262.458496,314.801514 265.114960,311.598969 
	C267.592621,308.612000 270.607391,305.963470 272.209686,302.206177 
	C269.557617,300.269928 265.976746,302.686920 263.046570,299.145630 
	C268.536224,297.478485 273.233490,297.786652 278.476959,299.030090 
	C276.395905,304.808258 271.474243,307.961151 269.127472,312.833893 
	C271.883820,314.779175 275.360779,312.433777 277.738831,314.859863 
	C275.558868,317.058624 275.558868,317.058624 267.513336,317.006042 
z"/>
<path fill="#000000" opacity="1.000000" stroke="none" 
	d="
M628.398315,317.070129 
	C626.038391,316.291351 623.673279,316.090027 623.309570,313.102692 
	C625.735596,311.460266 627.642029,314.075867 629.834900,313.851898 
	C631.510986,313.680695 633.490906,313.904358 633.872559,311.818420 
	C634.236389,309.829773 632.246643,309.649384 630.914124,309.106323 
	C630.298828,308.855591 629.675598,308.577667 629.028992,308.458527 
	C626.265442,307.949341 623.656433,307.161194 623.586365,303.730011 
	C623.520996,300.530823 625.643799,298.938141 628.474060,298.296814 
	C631.790100,297.545410 634.914856,297.615967 636.840576,301.270813 
	C634.580566,302.846161 632.754150,300.850128 630.817993,301.203796 
	C629.485474,301.447205 627.975220,301.446869 627.818298,303.185852 
	C627.692627,304.579224 628.863953,305.147156 630.000610,305.537140 
	C630.786194,305.806702 631.604187,305.981415 632.406311,306.203644 
	C635.241943,306.989380 638.156311,308.003937 637.933716,311.579895 
	C637.712891,315.126129 634.979736,316.560883 631.783569,317.092194 
	C630.813171,317.253510 629.796448,317.136505 628.398315,317.070129 
z"/>
<path fill="#000000" opacity="1.000000" stroke="none" 
	d="
M593.358765,298.045685 
	C597.279907,298.138000 600.686157,298.549011 602.325867,302.458649 
	C600.472473,304.674072 598.997009,303.182953 597.507202,302.262939 
	C594.862122,300.629486 592.712646,301.527740 590.921082,303.653625 
	C588.831787,306.132751 588.673523,308.789673 590.752136,311.360321 
	C592.518066,313.544250 594.702881,314.357971 597.345093,312.844849 
	C598.731628,312.050842 600.018738,310.614868 601.995789,312.496155 
	C600.735779,316.475769 597.520935,317.379669 593.923096,317.094696 
	C589.538391,316.747406 586.183105,312.990936 585.655884,308.399872 
	C585.069031,303.288574 587.152710,300.363159 593.358765,298.045685 
z"/>
<path fill="#000000" opacity="1.000000" stroke="none" 
	d="
M653.664185,312.104095 
	C657.568848,315.259583 662.337219,312.161652 666.457520,314.627808 
	C665.273804,317.765045 662.694519,317.068726 660.599854,317.102966 
	C649.617493,317.282532 649.470215,317.247070 649.681946,306.350525 
	C649.772400,301.694885 648.484619,296.876678 651.113892,292.271057 
	C654.971313,298.365936 652.053467,305.347382 653.664185,312.104095 
z"/>
<path fill="#000000" opacity="1.000000" stroke="none" 
	d="
M677.918213,317.092804 
	C675.963745,317.074127 674.472412,317.032928 672.981689,317.049469 
	C669.461548,317.088470 668.014771,315.819733 668.435059,311.903137 
	C668.962585,306.986389 668.589844,301.976227 668.682190,297.007812 
	C668.711609,295.427612 668.203186,293.654419 669.867188,292.366669 
	C672.705261,292.280121 672.303467,294.470306 672.330444,296.155457 
	C672.399292,300.461914 672.458374,304.776306 672.271118,309.076599 
	C672.119385,312.561462 673.602295,313.760620 676.982544,313.712769 
	C679.690552,313.674377 682.562500,312.927185 685.406616,314.541473 
	C684.044312,318.573669 680.730835,316.539703 677.918213,317.092804 
z"/>
<path fill="#000000" opacity="1.000000" stroke="none" 
	d="
M389.647095,304.982483 
	C389.658325,301.184113 389.631531,297.875946 389.690247,294.569244 
	C389.709961,293.457794 389.582031,292.032013 391.199310,291.899536 
	C393.106995,291.743256 393.209259,293.264679 393.260406,294.594696 
	C393.425598,298.887573 393.555969,303.182312 393.643982,307.477448 
	C393.707245,310.565674 394.608337,313.224640 397.609131,314.918518 
	C396.076782,317.174316 394.421967,317.611908 392.311218,316.731750 
	C390.382172,315.927338 389.605835,314.431427 389.620422,312.419037 
	C389.637177,310.103851 389.635925,307.788513 389.647095,304.982483 
z"/>
<path fill="#000000" opacity="1.000000" stroke="none" 
	d="
M717.898010,191.737106 
	C710.458374,189.524384 713.446777,183.370499 713.015076,178.817581 
	C712.782593,176.365341 715.146423,174.196350 718.401611,174.038132 
	C719.842468,176.830826 717.065430,177.923462 716.286682,180.086288 
	C717.394653,181.626587 720.365479,180.277527 721.049377,182.895813 
	C720.632874,185.250671 717.812195,184.397522 716.490906,185.689148 
	C716.397156,187.905487 720.684326,188.780426 717.898010,191.737106 
z"/>
<path fill="#000000" opacity="1.000000" stroke="none" 
	d="
M189.291138,299.213593 
	C192.379120,298.969849 195.214127,298.969849 198.341064,298.969849 
	C198.159668,299.816528 198.180817,300.848755 197.880310,300.952911 
	C192.227814,302.912201 192.023209,307.439789 192.235458,312.317444 
	C192.299240,313.782898 192.844513,316.179596 190.255341,316.025360 
	C188.161148,315.900604 188.665237,313.763123 188.684189,312.396973 
	C188.744003,308.083557 188.124313,303.746552 189.291138,299.213593 
z"/>
<path fill="#000000" opacity="1.000000" stroke="none" 
	d="
M455.082703,305.644531 
	C455.761108,303.036591 454.413605,300.591736 456.022491,298.292419 
	C456.625763,298.431061 457.417328,298.373840 457.796936,298.741730 
	C459.412109,300.307007 459.803986,313.910522 458.297180,315.556152 
	C457.912567,315.976166 457.146118,316.359863 456.628296,316.280792 
	C455.463409,316.102966 455.143188,315.064117 455.122589,314.025360 
	C455.069946,311.373138 455.077637,308.719727 455.082703,305.644531 
z"/>
<path fill="#000000" opacity="1.000000" stroke="none" 
	d="
M260.829346,300.028137 
	C261.021027,304.557068 261.102875,308.711121 261.054932,312.863708 
	C261.038544,314.280792 261.244873,316.215851 259.025635,316.138000 
	C257.264709,316.076202 257.139923,314.390259 257.165405,313.105621 
	C257.247864,308.953400 257.386810,304.796356 257.711548,300.657440 
	C257.878235,298.533020 259.038574,298.098877 260.829346,300.028137 
z"/>
<path fill="#000000" opacity="1.000000" stroke="none" 
	d="
M284.333740,309.820251 
	C283.745575,312.287750 285.680115,316.046722 282.586639,316.048859 
	C278.756775,316.051453 281.052216,312.194855 280.758728,310.095917 
	C280.372314,307.332306 280.634125,304.481110 280.564789,301.668854 
	C280.530792,300.289795 280.420959,298.853760 282.289429,298.714203 
	C284.223816,298.569702 284.287872,300.065430 284.309753,301.415588 
	C284.352661,304.063202 284.329010,306.711945 284.333740,309.820251 
z"/>
<path fill="#000000" opacity="1.000000" stroke="none" 
	d="
M580.968872,316.137268 
	C578.473267,310.308258 580.483704,304.434265 578.975891,298.312439 
	C583.961853,299.813873 584.893982,312.210999 580.968872,316.137268 
z"/>
<path fill="#000000" opacity="1.000000" stroke="none" 
	d="
M140.834137,181.898315 
	C138.754990,180.790451 137.025223,179.595261 135.124298,178.281799 
	C135.489746,176.646301 135.871506,174.937805 136.347443,172.807831 
	C138.522049,173.811081 140.567047,173.826767 142.515976,173.584320 
	C143.693771,176.783691 144.834717,179.727112 140.834137,181.898315 
z"/>
<path fill="#000000" opacity="1.000000" stroke="none" 
	d="
M727.225708,212.857758 
	C725.774841,214.549210 724.909546,217.326706 722.196472,215.331421 
	C718.106140,212.323303 720.906494,210.665009 723.551636,208.927933 
	C725.210205,209.768143 726.708191,210.657806 727.225708,212.857758 
z"/>
<path fill="#000000" opacity="1.000000" stroke="none" 
	d="
M712.525452,212.242676 
	C712.247009,214.417847 710.484131,214.918365 709.325256,216.084351 
	C707.418762,215.607773 706.298096,214.239609 705.161804,212.827271 
	C705.395630,210.633286 707.317139,210.088104 708.628235,208.956314 
	C710.480713,209.259628 711.361450,210.704788 712.525452,212.242676 
z"/>
<path fill="#000000" opacity="1.000000" stroke="none" 
	d="
M720.777100,225.767090 
	C719.530457,227.019226 718.914795,228.501175 717.308594,228.949677 
	C715.534729,228.233200 714.750671,226.665100 713.880066,225.079025 
	C714.672852,223.600357 715.610107,222.364624 717.162170,221.478073 
	C719.092407,222.176666 720.354370,223.472198 720.777100,225.767090 
z"/>
<path fill="#000000" opacity="1.000000" stroke="none" 
	d="
M735.426025,187.160461 
	C741.154724,189.833694 736.190369,192.921692 736.216492,195.878830 
	C733.745483,193.222198 732.367981,190.475754 735.426025,187.160461 
z"/>
</svg>